# xmcd
#
# Track frame offsets: 
#        150
#        12534
#        22373
#        32373
#        41785
#        52008
#        63015
#        73890
#        84007
#        92278
#        103203
#        115868
#        124010
#        136388
#        147603
#        159563
#        171710
#        182723
#        192663
#        202024
#        213475
#        222044
#        230949
#        242698
#        251878
#        262225
#        274085
#        284298
#        295043
#        305809
#
# Disc length: 4237 seconds
#
# Revision: 3
# Processed by: cddbd v1.5.2PL0 Copyright (c) Steve Scherf et al.
# Submitted via: ExactAudioCopy v1.3
#
DISCID=e3108b1e
DTITLE=Cash, Johnny - The Very Best Of The Sun Years
DYEAR=2001
DGENRE=Country
TTITLE0=I Walk The Line
TTITLE1=Rock Island Line
TTITLE2=Hey Porter
TTITLE3=New Mexico
TTITLE4=Straight A's In Love
TTITLE5=Cry, Cry, Cry
TTITLE6=I Heard That Lonesome Whistle Blow
TTITLE7=Get Rhythm
TTITLE8=Guess Things Happen That Way
TTITLE9=Fool's Hall Of Fame
TTITLE10=Folsom Prison Blues
TTITLE11=Wreck Of The Old '97
TTITLE12=Next In Line
TTITLE13=Don't Make Me Go
TTITLE14=Home Of The Blues
TTITLE15=Give My Love To Rose
TTITLE16=Wide Open Road
TTITLE17=Ballad Of A Teenage Queen
TTITLE18=Luther Played The Boogie
TTITLE19=Big River
TTITLE20=I Forgot To Remember To Forget
TTITLE21=Katy Too
TTITLE22=So Doggone Lonesome
TTITLE23=I Couldn't Keep From Crying
TTITLE24=There You Go
TTITLE25=Thanks A Lot
TTITLE26=The Ways Of A Woman In Love
TTITLE27=Train Of Love
TTITLE28=I Just Thought You'd Like To Know
TTITLE29=Goodnight Irene
EXTD=\n\nYEAR: 2001  ID3G:   2
EXTT0=
EXTT1=
EXTT2=
EXTT3=
EXTT4=
EXTT5=
EXTT6=
EXTT7=
EXTT8=
EXTT9=
EXTT10=
EXTT11=
EXTT12=
EXTT13=
EXTT14=
EXTT15=
EXTT16=
EXTT17=
EXTT18=
EXTT19=
EXTT20=
EXTT21=
EXTT22=
EXTT23=
EXTT24=
EXTT25=
EXTT26=
EXTT27=
EXTT28=
EXTT29=
PLAYORDER=
